<svg xmlns="http://www.w3.org/2000/svg">

      <symbol id="truck"><path style=" " d="M 2.84375 13 C 1.273438 13 0 14.277344 0 15.84375 L 0 42 C 0 43.566406 1.429688 45 3 45 L 7.09375 45 C 7.570313 47.835938 10.03125 50 13 50 C 15.96875 50 18.429688 47.835938 18.90625 45 L 28.15625 45 C 29.722656 45 31 43.722656 31 42.15625 L 31 15.90625 C 31 14.304688 29.738281 13 28.1875 13 Z M 33 20 L 33 45 C 33.480469 47.832031 36.03125 50 39 50 C 41.96875 50 44.429688 47.832031 44.90625 45 L 47 45 C 48.570313 45 50 43.570313 50 42 L 50 32.375 C 50 30.363281 48.550781 28.308594 48.375 28.0625 L 44.21875 22.5 C 43.265625 21.351563 41.769531 20 40 20 Z M 38 25 L 43.59375 25 L 46.78125 29.25 C 47.121094 29.730469 48 31.203125 48 32.375 L 48 33 L 38 33 C 37 33 36 32 36 31 L 36 27 C 36 25.894531 37 25 38 25 Z M 13 40 C 15.207031 40 17 41.792969 17 44 C 17 46.207031 15.207031 48 13 48 C 10.792969 48 9 46.207031 9 44 C 9 41.792969 10.792969 40 13 40 Z M 39 40 C 41.207031 40 43 41.792969 43 44 C 43 46.207031 41.207031 48 39 48 C 36.792969 48 35 46.207031 35 44 C 35 41.792969 36.792969 40 39 40 Z "></path></symbol>
      <symbol id="copy"><path d="M 11 2 C 9.895 2 9 2.895 9 4 L 9 20 C 9 21.105 9.895 22 11 22 L 24 22 C 25.105 22 26 21.105 26 20 L 26 8.5 C 26 8.235 25.895031 7.9809687 25.707031 7.7929688 L 20.207031 2.2929688 C 20.019031 2.1049687 19.765 2 19.5 2 L 11 2 z M 19 3.9042969 L 24.095703 9 L 20 9 C 19.448 9 19 8.552 19 8 L 19 3.9042969 z M 6 7 C 4.895 7 4 7.895 4 9 L 4 25 C 4 26.105 4.895 27 6 27 L 19 27 C 20.105 27 21 26.105 21 25 L 21 24 L 11 24 C 8.794 24 7 22.206 7 20 L 7 7 L 6 7 z"></path></symbol>
      <symbol id="рабочий"><path style=" " d="M 25.5 0 C 22.46875 0 20 2.46875 20 5.5 C 20 8.535156 22.46875 11 25.5 11 C 28.535156 11 31 8.535156 31 5.5 C 31 2.46875 28.535156 0 25.5 0 Z M 18.0625 10.21875 C 18.0625 10.21875 11.574219 10.554688 10.96875 10.59375 C 10.363281 10.632813 10.035156 10.746094 9.6875 11.09375 C 9.328125 11.453125 2.9375 18.40625 2.9375 18.40625 C 1.789063 19.636719 2.628906 20.695313 3.125 20.9375 C 3.402344 21.074219 3.742188 21.195313 4.125 21.1875 C 4.136719 21.191406 4.144531 21.179688 4.15625 21.1875 L 8.03125 23.15625 C 8.183594 22.832031 8.34375 22.539063 8.5 22.28125 C 8.5 22.28125 8.703125 21.976563 9.0625 21.46875 L 6.25 20.03125 L 11.03125 15.28125 L 13.40625 15.15625 C 12.203125 17.019531 10.082031 20.03125 9.0625 21.46875 L 18.3125 26.0625 L 22.0625 20.375 C 22.84375 23.519531 24.28125 29.402344 24.625 30.5625 C 25.066406 32.058594 25.824219 33.03125 27 32.78125 C 28.179688 32.53125 28.46875 31.878906 28.15625 30.5625 C 27.78125 28.976563 25.59375 16.5 25.59375 16.5 C 25.46875 15.800781 25.207031 15.199219 24.84375 14.78125 L 24.84375 14.75 C 24.84375 14.75 24.039063 13.640625 21.78125 12.09375 C 19.523438 10.546875 18.703125 10.21875 18.125 10.21875 C 18.117188 10.21875 18.105469 10.25 18.09375 10.25 C 18.078125 10.246094 18.078125 10.21875 18.0625 10.21875 Z M 18.3125 26.0625 L 17.75 26.90625 L 17.3125 27.8125 L 22.5 30.40625 C 22.332031 29.777344 22.101563 28.871094 21.84375 27.84375 Z M 17.3125 27.8125 L 8.03125 23.15625 C 7.5625 24.140625 7.144531 25.3125 7 25.78125 C 6.808594 26.40625 1.390625 44.652344 1.21875 45.3125 C 1.046875 45.976563 0.652344 48.136719 2.6875 48.84375 C 4.851563 49.59375 5.5 46.96875 5.5 46.96875 L 11.21875 31.875 L 16.4375 36.71875 L 17.65625 46.5625 C 17.65625 46.5625 17.734375 49 19.6875 49 C 21.640625 49 21.65625 47.730469 21.65625 46.125 C 21.65625 44.6875 21.339844 37.980469 21.3125 37.40625 C 21.285156 36.832031 21.074219 36.117188 20.84375 35.71875 C 20.296875 34.78125 16.90625 28.625 16.90625 28.625 Z M 39.15625 30 C 37.644531 30 36.855469 30.550781 34.625 34.25 L 30.21875 32.03125 C 30.15625 32.429688 30.027344 32.828125 29.78125 33.21875 C 29.644531 33.433594 29.464844 33.640625 29.28125 33.8125 L 33.59375 35.9375 C 32.519531 37.59375 31.855469 38.0625 31.5 38.0625 C 30.910156 38.0625 29.113281 38.046875 28.375 39.65625 C 27.835938 40.824219 24.128906 48.484375 24.09375 48.5625 C 23.945313 48.875 23.972656 49.238281 24.15625 49.53125 C 24.339844 49.820313 24.65625 50 25 50 L 49 50 C 49.34375 50 49.660156 49.820313 49.84375 49.53125 C 50.027344 49.242188 50.050781 48.871094 49.90625 48.5625 C 49.839844 48.421875 43.242188 34.457031 42.59375 32.9375 C 41.765625 30.992188 40.609375 30 39.15625 30 Z "></path></symbol>
    
      <symbol id="внимание/время"><path style=" " d="M 15 0 C 6.753906 0 0 6.753906 0 15 C 0 23.246094 6.753906 30 15 30 C 15.796875 30 16.628906 29.882813 17.34375 29.78125 C 17.726563 29.769531 18.066406 29.539063 18.222656 29.1875 C 18.378906 28.835938 18.320313 28.429688 18.074219 28.136719 C 17.824219 27.84375 17.433594 27.71875 17.0625 27.8125 C 16.375 27.910156 15.605469 28 15 28 C 7.84375 28 2 22.15625 2 15 C 2 7.84375 7.84375 2 15 2 C 20.855469 2 25.863281 5.90625 27.4375 11.28125 C 27.59375 11.816406 28.152344 12.125 28.6875 11.96875 C 29.222656 11.8125 29.53125 11.253906 29.375 10.71875 C 27.550781 4.496094 21.746094 0 15 0 Z M 14.90625 4.96875 C 14.863281 4.976563 14.820313 4.988281 14.78125 5 C 14.316406 5.105469 13.988281 5.523438 14 6 L 14 13.5 C 13.519531 13.824219 13.1875 14.378906 13.1875 15 C 13.1875 15.105469 13.234375 15.214844 13.25 15.3125 L 9.59375 19 C 9.296875 19.242188 9.160156 19.628906 9.246094 20.003906 C 9.332031 20.375 9.625 20.667969 9.996094 20.753906 C 10.371094 20.839844 10.757813 20.703125 11 20.40625 L 14.6875 16.75 C 14.785156 16.765625 14.894531 16.8125 15 16.8125 C 15.992188 16.8125 16.8125 15.992188 16.8125 15 C 16.8125 14.378906 16.480469 13.824219 16 13.5 L 16 6 C 16.011719 5.710938 15.894531 5.433594 15.6875 5.238281 C 15.476563 5.039063 15.191406 4.941406 14.90625 4.96875 Z M 29.5 14.25 C 29.15625 14.25 28.804688 14.378906 28.625 14.6875 L 9.125 48.5 C 8.945313 48.808594 8.945313 49.191406 9.125 49.5 C 9.304688 49.808594 9.644531 50 10 50 L 49 50 C 49.007813 50 49.023438 50 49.03125 50 C 49.585938 50 50.03125 49.554688 50.03125 49 C 50.03125 48.75 49.933594 48.519531 49.78125 48.34375 L 30.375 14.6875 C 30.195313 14.378906 29.84375 14.25 29.5 14.25 Z M 28.5 27 L 30.40625 27 C 30.605469 27 30.6875 27.113281 30.6875 27.3125 L 30.6875 38.6875 C 30.6875 38.886719 30.605469 39 30.40625 39 L 28.5 39 C 28.300781 39 28.1875 38.886719 28.1875 38.6875 L 28.1875 27.3125 C 28.1875 27.113281 28.300781 27 28.5 27 Z M 28.5 41.3125 L 30.5 41.3125 C 30.699219 41.3125 30.8125 41.394531 30.8125 41.59375 L 30.8125 43.6875 C 30.8125 43.886719 30.699219 44 30.5 44 L 28.5 44 C 28.300781 44 28.1875 43.886719 28.1875 43.6875 L 28.1875 41.59375 C 28.1875 41.394531 28.300781 41.3125 28.5 41.3125 Z "></path></symbol>
      <symbol id="ms-word"><path style=" " d="M 28.875 0 C 28.855469 0.0078125 28.832031 0.0195313 28.8125 0.03125 L 0.8125 5.34375 C 0.335938 5.433594 -0.0078125 5.855469 0 6.34375 L 0 43.65625 C -0.0078125 44.144531 0.335938 44.566406 0.8125 44.65625 L 28.8125 49.96875 C 29.101563 50.023438 29.402344 49.949219 29.632813 49.761719 C 29.859375 49.574219 29.996094 49.296875 30 49 L 30 44 L 47 44 C 48.09375 44 49 43.09375 49 42 L 49 8 C 49 6.90625 48.09375 6 47 6 L 30 6 L 30 1 C 30.003906 0.710938 29.878906 0.4375 29.664063 0.246094 C 29.449219 0.0546875 29.160156 -0.0351563 28.875 0 Z M 28 2.1875 L 28 6.6875 C 27.941406 6.882813 27.941406 7.085938 28 7.28125 L 28 42.8125 C 27.972656 42.945313 27.972656 43.085938 28 43.21875 L 28 47.8125 L 2 42.84375 L 2 7.15625 Z M 30 8 L 47 8 L 47 42 L 30 42 L 30 37 L 44 37 L 44 35 L 30 35 L 30 29 L 44 29 L 44 27 L 30 27 L 30 22 L 44 22 L 44 20 L 30 20 L 30 15 L 44 15 L 44 13 L 30 13 Z M 4.625 15.65625 L 8.4375 34.34375 L 12.1875 34.34375 L 14.65625 22.375 C 14.769531 21.824219 14.875 21.101563 14.9375 20.25 L 14.96875 20.25 C 14.996094 21.023438 15.058594 21.75 15.1875 22.375 L 17.59375 34.34375 L 21.21875 34.34375 L 25.0625 15.65625 L 21.75 15.65625 L 19.75 28.125 C 19.632813 28.828125 19.558594 29.53125 19.53125 30.21875 L 19.5 30.21875 C 19.433594 29.339844 19.367188 28.679688 19.28125 28.21875 L 16.90625 15.65625 L 13.40625 15.65625 L 10.78125 28.0625 C 10.613281 28.855469 10.496094 29.582031 10.46875 30.25 L 10.40625 30.25 C 10.367188 29.355469 10.308594 28.625 10.21875 28.09375 L 8.1875 15.65625 Z "></path></symbol>
    <!-- <svg xmlns="http://www.w3.org/2000/svg" viewBox="0 0 26 26" class=" grey-fill" style="height: 2rem;" ><use xlink:href="/fonts/icons.svg#начальная дата" /></svg> -->
      <symbol id="начальная дата"><path style=" " d="M 7 0 C 6.398438 0 6 0.398438 6 1 L 6 4 C 6 4.601563 6.398438 5 7 5 C 7.601563 5 8 4.601563 8 4 L 8 1 C 8 0.398438 7.601563 0 7 0 Z M 17 0 C 16.398438 0 16 0.398438 16 1 L 16 4 C 16 4.601563 16.398438 5 17 5 C 17.601563 5 18 4.601563 18 4 L 18 1 C 18 0.398438 17.601563 0 17 0 Z M 3 2 C 1.300781 2 0 3.300781 0 5 L 0 22 C 0 23.699219 1.300781 25 3 25 L 21 25 C 22.699219 25 24 23.699219 24 22 L 24 19.90625 L 22 21.8125 L 22 22 C 22 22.601563 21.601563 23 21 23 L 3 23 C 2.398438 23 2 22.601563 2 22 L 2 8 L 22 8 L 22 9.1875 L 24 11 L 24 5 C 24 3.300781 22.699219 2 21 2 L 19 2 L 19 4 C 19 5.101563 18.101563 6 17 6 C 15.898438 6 15 5.101563 15 4 L 15 2 L 9 2 L 9 4 C 9 5.101563 8.101563 6 7 6 C 5.898438 6 5 5.101563 5 4 L 5 2 Z M 19.84375 10.0625 C 19.5625 10.039063 19 10.117188 19 11.09375 L 19 13 L 14 13 C 13.398438 13 13 13.398438 13 14 L 13 17 C 13 17.601563 13.398438 18 14 18 L 19 18 L 19 19.90625 C 19 21.207031 20 20.90625 20 20.90625 L 25.90625 15.5 L 20 10.09375 C 20 10.09375 19.9375 10.070313 19.84375 10.0625 Z "></path></symbol>
      <symbol id="конечная дата"><path style=" " d="M 9 0 C 8.398438 0 8 0.398438 8 1 L 8 4 C 8 4.601563 8.398438 5 9 5 C 9.601563 5 10 4.601563 10 4 L 10 1 C 10 0.398438 9.601563 0 9 0 Z M 19 0 C 18.398438 0 18 0.398438 18 1 L 18 4 C 18 4.601563 18.398438 5 19 5 C 19.601563 5 20 4.601563 20 4 L 20 1 C 20 0.398438 19.601563 0 19 0 Z M 5 2 C 3.300781 2 2 3.300781 2 5 L 2 11 L 4 11 L 4 8 L 24 8 L 24 22 C 24 22.601563 23.601563 23 23 23 L 5 23 C 4.398438 23 4 22.601563 4 22 L 4 20 L 2 20 L 2 22 C 2 23.699219 3.300781 25 5 25 L 23 25 C 24.699219 25 26 23.699219 26 22 L 26 5 C 26 3.300781 24.699219 2 23 2 L 21 2 L 21 4 C 21 5.101563 20.101563 6 19 6 C 17.898438 6 17 5.101563 17 4 L 17 2 L 11 2 L 11 4 C 11 5.101563 10.101563 6 9 6 C 7.898438 6 7 5.101563 7 4 L 7 2 Z M 6.84375 10.0625 C 6.5625 10.039063 6 10.117188 6 11.09375 L 6 13 L 1 13 C 0.398438 13 0 13.398438 0 14 L 0 17 C 0 17.601563 0.398438 18 1 18 L 6 18 L 6 19.90625 C 6 21.207031 7 20.90625 7 20.90625 L 12.90625 15.5 L 7 10.09375 C 7 10.09375 6.9375 10.070313 6.84375 10.0625 Z "></path></symbol>
    <!-- <svg xmlns="http://www.w3.org/2000/svg" viewBox="0 0 24 24" class=" blue-fill" style="height: 2rem;" ><use xlink:href="/fonts/icons.svg#событие принято" /></svg> -->
      <symbol id="событие принято"><path style=" " d="M 5 2 L 5 4 L 4 4 C 2.894531 4 2 4.894531 2 6 L 2 17 C 2 18.105469 2.894531 19 4 19 L 11.34375 19 C 11.121094 18.375 11 17.703125 11 17 L 4 17 L 4 8 L 16 8 L 16 11.09375 C 16.324219 11.039063 16.660156 11 17 11 C 17.339844 11 17.675781 11.039063 18 11.09375 L 18 6 C 18 4.894531 17.105469 4 16 4 L 15 4 L 15 2 L 13 2 L 13 4 L 7 4 L 7 2 Z M 10 9.25 L 9.15625 11.21875 L 7 11.40625 L 8.625 12.84375 L 8.15625 14.9375 L 10 13.8125 L 11.84375 14.9375 L 11.375 12.84375 L 13 11.40625 L 10.84375 11.21875 Z M 17 12 C 14.238281 12 12 14.238281 12 17 C 12 19.761719 14.238281 22 17 22 C 19.761719 22 22 19.761719 22 17 C 22 14.238281 19.761719 12 17 12 Z M 19.125 14.0625 L 20.53125 15.46875 L 16 20 L 13 17 L 14.40625 15.59375 L 16 17.1875 Z "></path></symbol>
    <!-- <svg xmlns="http://www.w3.org/2000/svg" viewBox="0 0 24 24" class=" blue-fill" style="height: 2rem;" ><use xlink:href="/fonts/icons.svg#повторить" /></svg> -->
      <symbol id="повторить"><path style=" " d="M 17 1.875 L 17 5 L 9 5 C 4.054688 5 0 9.054688 0 14 C 0 18.945313 4.054688 23 9 23 L 24 23 L 24 19 L 9 19 C 6.214844 19 4 16.785156 4 14 C 4 11.214844 6.214844 9 9 9 L 17 9 L 17 12.125 L 24 7 Z "></path></symbol>
    <!-- <svg xmlns="http://www.w3.org/2000/svg" viewBox="0 0 48 48" class=" blue-fill" style="height: 2rem;" ><use xlink:href="/fonts/icons.svg#туда-обратно" /></svg> -->
      <symbol id="туда-обратно"><g ><path d="M 13 13 C 13 9.699219 15.699219 7 19 7 L 29 7 C 32.300781 7 35 9.699219 35 13 L 39 13 C 39 7.5 34.5 3 29 3 L 19 3 C 13.5 3 9 7.5 9 13 L 9 24.199219 L 13 24.199219 Z "></path><path d="M 4.601563 22 L 11 30.398438 L 17.398438 22 Z "></path><path d="M 35 35 C 35 38.300781 32.300781 41 29 41 L 19 41 C 15.699219 41 13 38.300781 13 35 L 9 35 C 9 40.5 13.5 45 19 45 L 29 45 C 34.5 45 39 40.5 39 35 L 39 23 L 35 23 Z "></path><path d="M 30.601563 26 L 37 17.601563 L 43.398438 26 Z "></path></g></symbol>
    <!-- <svg  xmlns="http://www.w3.org/2000/svg" viewBox="0 0 50 50" class=" teal-fill fill-darken-3" style="height: 2rem; position: absolute; top:0; left:0;" ><use xlink:href="/fonts/icons.svg#вправо-вниз" /></svg> -->
      <symbol id="вправо-вниз"><path style=" " d="M 28 46.410156 L 28 35.988281 C 19.636719 35.796875 12.960938 33.171875 8.136719 28.179688 C -0.359375 19.386719 -0.0195313 6.507813 0 5.964844 L 1.996094 5.925781 C 2.054688 6.652344 3.628906 23.542969 28 23.992188 L 28 13.589844 L 49.65625 30 Z "></path></symbol>
      <!-- <svg  xmlns="http://www.w3.org/2000/svg" viewBox="0 0 50 50" class=" teal-fill fill-darken-3" style="height: 2rem; position: absolute; top:0; left:0;" ><use xlink:href="/fonts/icons.svg#вправо-вниз-выпукло" /></svg> -->
      <symbol id="вправо-вниз-выпукло"><path style=" " d="M 30 49.65625 L 13.589844 28 L 23.992188 28 C 23.527344 3.558594 6.105469 2.011719 5.929688 1.996094 L 5.964844 0 C 5.964844 0 6.097656 -0.00390625 6.347656 -0.00390625 C 9.34375 -0.00390625 35.367188 0.789063 35.988281 28 L 46.410156 28 Z "></path></symbol>
    <!-- <svg  xmlns="http://www.w3.org/2000/svg" viewBox="0 0 50 50" class=" teal-fill fill-darken-3" style="height: 2rem;" ><use xlink:href="/fonts/icons.svg#тачка" /></svg> -->
      <!--symbol id="тачка"><path style=" " d="M 28.84375 13.25 C 26.160156 13.25 23.789063 14.851563 22.71875 17.28125 C 22.070313 17.355469 21.335938 17.585938 20.71875 18 L 45.03125 18 C 44.136719 16.925781 42.792969 16.375 41.4375 16.375 C 41.304688 16.375 41.164063 16.359375 41.03125 16.375 C 40.386719 15.292969 39.207031 14.59375 37.90625 14.59375 C 37.195313 14.59375 36.519531 14.808594 35.9375 15.1875 C 35.011719 14.71875 34.027344 14.480469 32.90625 14.625 C 31.726563 13.726563 30.300781 13.25 28.84375 13.25 Z M 1 20 C 0.449219 20 0 20.449219 0 21 C 0 21.550781 0.449219 22 1 22 L 8.59375 22 L 17.625 30.34375 L 15.8125 25.90625 L 9.6875 20.28125 C 9.503906 20.109375 9.25 20 9 20 Z M 17 20 C 16.664063 20 16.34375 20.160156 16.15625 20.4375 C 15.96875 20.714844 15.933594 21.066406 16.0625 21.375 L 21.0625 33.375 C 21.1875 33.679688 21.460938 33.902344 21.78125 33.96875 L 35.46875 36.90625 L 37.5625 39.3125 C 36.597656 40.445313 36 41.902344 36 43.5 C 36 47.078125 38.921875 50 42.5 50 C 46.078125 50 49 47.078125 49 43.5 C 49 39.921875 46.078125 37 42.5 37 C 41.238281 37 40.0625 37.371094 39.0625 38 L 37.3125 36 L 49.75 21.65625 C 50.007813 21.359375 50.070313 20.949219 49.90625 20.59375 C 49.746094 20.238281 49.390625 20 49 20 Z M 21.71875 36 C 22.09375 37.519531 22.550781 39.382813 22.9375 40.875 C 23.339844 42.429688 24.246094 43.511719 25.46875 43.90625 C 25.796875 44.011719 26.125 44.0625 26.46875 44.0625 C 27.417969 44.0625 28.414063 43.675781 29.34375 42.90625 C 31.441406 41.171875 33.117188 39.75 34.34375 38.71875 L 31.875 38.1875 C 30.820313 39.070313 29.542969 40.117188 28.0625 41.34375 C 27.339844 41.941406 26.625 42.179688 26.0625 42 C 25.511719 41.824219 25.101563 41.242188 24.875 40.375 C 24.566406 39.1875 24.195313 37.769531 23.875 36.46875 Z M 42.5 39 C 44.996094 39 47 41.003906 47 43.5 C 47 45.996094 44.996094 48 42.5 48 C 40.003906 48 38 45.996094 38 43.5 C 38 42.5 38.328125 41.589844 38.875 40.84375 L 41.75 44.15625 C 41.972656 44.460938 42.347656 44.613281 42.722656 44.550781 C 43.09375 44.488281 43.398438 44.21875 43.511719 43.859375 C 43.621094 43.5 43.519531 43.105469 43.25 42.84375 L 40.375 39.53125 C 41.007813 39.191406 41.726563 39 42.5 39 Z "></path></symbol-->
    <!-- <svg  xmlns="http://www.w3.org/2000/svg" viewBox="0 0 50 50" class=" teal-fill fill-darken-3" style="height: 2rem;" ><use xlink:href="/fonts/icons.svg#водитель" /></svg> -->
      <symbol id="водитель"><path style=" " d="M 25 0 C 20.039063 0 16 4.484375 16 10 C 16 15.515625 20.039063 20 25 20 C 29.964844 20 34 15.515625 34 10 C 34 4.484375 29.964844 0 25 0 Z M 25 21.0625 C 19.832031 21.0625 16.03125 21.699219 12.28125 23.15625 C 10.730469 23.757813 9.78125 25.289063 8.6875 27.0625 C 8.4375 27.464844 8.183594 27.882813 7.90625 28.3125 C 7.488281 28.953125 7.015625 29.683594 6.5 30.46875 C 4.378906 33.703125 1.75 37.714844 0.84375 39.46875 C -0.125 41.347656 -0.179688 42.855469 0.65625 44.46875 C 1.320313 45.757813 2.246094 47.441406 3.40625 49.46875 L 3.71875 50 L 10 50 L 10 49 C 10 41.820313 16.714844 36 25 36 C 33.285156 36 40 41.820313 40 49 L 40 50 L 46.28125 50 L 46.59375 49.46875 C 47.746094 47.457031 48.667969 45.773438 49.34375 44.46875 C 50.179688 42.855469 50.125 41.347656 49.15625 39.46875 C 48.511719 38.222656 46.960938 35.867188 45.3125 33.34375 C 44.121094 31.515625 42.886719 29.625 42.125 28.34375 L 41.6875 27.625 C 40.472656 25.554688 39.449219 23.746094 37.71875 23.125 C 34.265625 21.882813 30.765625 21.0625 25 21.0625 Z M 25 40 C 18.933594 40 14 44.058594 14 49 L 14 50 L 36 50 L 36 49 C 36 44.058594 31.0625 40 25 40 Z "></path></symbol>
    <!-- <svg  xmlns="http://www.w3.org/2000/svg" viewBox="0 0 50 50" class=" teal-fill fill-darken-3" style="height: 2rem;" ><use xlink:href="/fonts/icons.svg#person" /></svg> -->
      <symbol id="person"><path style=" " d="M 34.800781 33.800781 C 33.101563 33.101563 31 32.199219 31 31.5 L 31 27 C 33.5 25.101563 35 22.101563 35 19 L 35 13 C 35 7.5 30.5 3 25 3 C 19.5 3 15 7.5 15 13 L 15 19 C 15 22.101563 16.5 25.199219 19 27 L 19 31.5 C 19 32.101563 16.898438 33 15.199219 33.800781 C 11.101563 35.5 5 38.101563 5 45 L 5 46 L 45 46 L 45 45 C 45 38.101563 38.898438 35.5 34.800781 33.800781 Z "></path></symbol>
    <!-- <svg  xmlns="http://www.w3.org/2000/svg" viewBox="0 0 24 24" class=" teal-fill fill-darken-3" style="height: 1rem;" ><use xlink:href="/fonts/icons.svg#плюс в квадрате" /></svg> -->
      <symbol id="плюс в квадрате"><path style=" " d="M 5 2 C 3.347656 2 2 3.347656 2 5 L 2 19 C 2 20.652344 3.347656 22 5 22 L 19 22 C 20.652344 22 22 20.652344 22 19 L 22 5 C 22 3.347656 20.652344 2 19 2 Z M 5 4 L 19 4 C 19.550781 4 20 4.449219 20 5 L 20 19 C 20 19.550781 19.550781 20 19 20 L 5 20 C 4.449219 20 4 19.550781 4 19 L 4 5 C 4 4.449219 4.449219 4 5 4 Z M 11 6 L 11 11 L 6 11 L 6 13 L 11 13 L 11 18 L 13 18 L 13 13 L 18 13 L 18 11 L 13 11 L 13 6 Z "></path></symbol>
    <!-- <svg  xmlns="http://www.w3.org/2000/svg" viewBox="0 0 26 26" class=" teal-fill fill-darken-3" style="height: 1rem;" ><use xlink:href="/fonts/icons.svg#плюс в квадрате заполнен" /></svg> -->
      <symbol id="плюс в квадрате заполнен"><path style=" " d="M 19 3 L 7 3 C 4.800781 3 3 4.800781 3 7 L 3 19 C 3 21.199219 4.800781 23 7 23 L 19 23 C 21.199219 23 23 21.199219 23 19 L 23 7 C 23 4.800781 21.199219 3 19 3 Z M 19 14 L 14 14 L 14 19 L 12 19 L 12 14 L 7 14 L 7 12 L 12 12 L 12 7 L 14 7 L 14 12 L 19 12 Z "></path></symbol>
    <!-- <svg  xmlns="http://www.w3.org/2000/svg" viewBox="0 0 50 50" class=" red-fill fill-darken-1" style="height: 2rem;" ><use xlink:href="/fonts/icons.svg#стереть" /></svg> добавить в path transform="rotate(180, 25, 25)"-->
      <symbol id="стереть"><path style=" " d="M 46 10 L 12.539063 10 L -0.316406 25 L 12.539063 40 L 46 40 C 48.207031 40 50 38.207031 50 36 L 50 14 C 50 11.792969 48.207031 10 46 10 Z M 34.707031 30.292969 L 33.292969 31.707031 L 28 26.414063 L 22.707031 31.707031 L 21.292969 30.292969 L 26.585938 25 L 21.292969 19.707031 L 22.707031 18.292969 L 28 23.585938 L 33.292969 18.292969 L 34.707031 19.707031 L 29.414063 25 Z "></path></symbol>
    <!-- <svg  xmlns="http://www.w3.org/2000/svg" viewBox="0 0 48 48" class=" red-fill fill-darken-1" style="height: 2rem;" ><use xlink:href="/fonts/icons.svg#стрелка влево вверх полукруг" /></svg> -->
      <symbol id="стрелка влево вверх полукруг"><g><path style="" d="M 19 4 L 30.699219 18 L 7.300781 18 Z "></path><path style="" d="M 27 42 L 40 42 L 40 34 L 27 34 C 24.800781 34 23 32.199219 23 30 L 23 13 L 15 13 L 15 30 C 15 36.601563 20.398438 42 27 42 Z "></path></g></symbol>
    <!-- <svg  xmlns="http://www.w3.org/2000/svg" viewBox="0 0 50 50" class=" teal-fill fill-darken-3" style="height: 2rem;" ><use xlink:href="/fonts/icons.svg#колесо" /></svg> -->
      <symbol id="колесо"><path d="M 25 2 C 12.318 2 2 12.318 2 25 C 2 37.682 12.318 48 25 48 C 37.682 48 48 37.682 48 25 C 48 12.318 37.682 2 25 2 z M 24.998047 9 C 25.299824 9 25.594873 9.0283545 25.892578 9.0449219 C 25.867808 9.1408872 25.842172 9.2375964 25.847656 9.3417969 L 26.3125 18.449219 C 26.3345 18.856219 26.599422 19.20975 26.982422 19.34375 C 27.691422 19.59175 28.337297 19.963219 28.904297 20.449219 C 29.090297 20.608219 29.320688 20.691406 29.554688 20.691406 C 29.718688 20.691406 29.883203 20.650359 30.033203 20.568359 L 38.117188 16.167969 C 38.172517 16.137851 38.208677 16.089158 38.255859 16.050781 C 38.600697 16.559872 38.907898 17.094152 39.193359 17.642578 C 39.053736 17.664249 38.916031 17.710851 38.791016 17.794922 L 31.308594 22.800781 C 30.972594 23.025781 30.806766 23.429172 30.884766 23.826172 C 30.961766 24.215172 31 24.611 31 25 C 31 25.389 30.960813 25.784828 30.882812 26.173828 C 30.803812 26.569828 30.970688 26.972266 31.304688 27.197266 L 38.927734 32.328125 C 38.99973 32.376543 39.075808 32.40998 39.154297 32.4375 C 38.870539 32.975317 38.561756 33.49653 38.220703 33.996094 C 38.158522 33.936248 38.100732 33.871678 38.021484 33.828125 L 33.730469 31.466797 C 33.664469 31.426797 33.601297 31.380422 33.529297 31.357422 L 30.035156 29.433594 C 29.670156 29.231594 29.218344 29.279781 28.902344 29.550781 C 28.335344 30.036781 27.689469 30.410203 26.980469 30.658203 C 26.597469 30.792203 26.3325 31.144781 26.3125 31.550781 L 25.847656 40.615234 C 25.841626 40.734121 25.865782 40.847458 25.898438 40.955078 C 25.598815 40.971861 25.301796 41 24.998047 41 C 24.694628 41 24.398906 40.971829 24.099609 40.955078 C 24.131696 40.849416 24.155676 40.739529 24.150391 40.623047 L 23.742188 31.578125 C 23.724187 31.165125 23.456406 30.806828 23.066406 30.673828 C 22.324406 30.421828 21.646734 30.029766 21.052734 29.509766 C 20.738734 29.234766 20.286922 29.183813 19.919922 29.382812 L 11.697266 33.875 C 11.355136 33.363741 11.050081 32.827746 10.767578 32.277344 C 10.90933 32.256613 11.050099 32.215949 11.177734 32.130859 L 18.679688 27.128906 C 19.012687 26.905906 19.181422 26.505328 19.107422 26.111328 C 19.035422 25.730328 19 25.357 19 25 C 19 24.643 19.035422 24.269672 19.107422 23.888672 C 19.181422 23.494672 19.013687 23.094094 18.679688 22.871094 L 11.177734 17.876953 C 11.050413 17.792257 10.909474 17.745504 10.767578 17.724609 C 11.065466 17.144075 11.385922 16.577873 11.75 16.041016 C 11.838923 16.185323 11.951355 16.316103 12.111328 16.402344 L 19.921875 20.615234 C 20.070875 20.696234 20.234484 20.736328 20.396484 20.736328 C 20.633484 20.736328 20.867688 20.652281 21.054688 20.488281 C 21.647687 19.968281 22.324406 19.577219 23.066406 19.324219 C 23.455406 19.191219 23.724187 18.832875 23.742188 18.421875 L 24.152344 9.3359375 C 24.156977 9.2336369 24.131756 9.1391112 24.107422 9.0449219 C 24.404159 9.0284586 24.69726 9 24.998047 9 z M 22.152344 9.2675781 L 21.96875 13.390625 C 19.90775 13.925625 18.048297 14.993719 16.529297 16.511719 L 13.0625 14.640625 C 13.002898 14.608569 12.939145 14.603074 12.876953 14.583984 C 15.223455 11.856725 18.469082 9.9325147 22.152344 9.2675781 z M 27.847656 9.2695312 C 31.483771 9.9267197 34.690008 11.812101 37.029297 14.484375 L 33.412109 16.451172 C 31.923109 14.988172 30.067594 13.931391 28.058594 13.400391 L 27.847656 9.2695312 z M 39.964844 19.392578 C 40.622249 21.140718 41 23.024823 41 25 C 41 26.977996 40.622085 28.865013 39.962891 30.615234 L 36.529297 28.302734 C 36.835297 27.232734 37 26.126 37 25 C 37 23.878 36.839156 22.776938 36.535156 21.710938 L 39.902344 19.455078 C 39.927844 19.438023 39.941434 19.41149 39.964844 19.392578 z M 10.003906 19.476562 C 10.027992 19.496072 10.042063 19.523484 10.068359 19.541016 L 13.441406 21.787109 C 13.152406 22.829109 13 23.906 13 25 C 13 26.095 13.155312 27.171844 13.445312 28.214844 L 10.068359 30.466797 C 10.042859 30.483852 10.029275 30.51039 10.005859 30.529297 C 9.3672041 28.802932 9 26.945804 9 25 C 9 23.056369 9.3666108 21.20131 10.003906 19.476562 z M 25 21 C 22.794 21 21 22.794 21 25 C 21 27.206 22.794 29 25 29 C 27.206 29 29 27.206 29 25 C 29 22.794 27.206 21 25 21 z M 25 23 C 26.103 23 27 23.897 27 25 C 27 26.103 26.103 27 25 27 C 23.897 27 23 26.103 23 25 C 23 23.897 23.897 23 25 23 z M 16.523438 33.486328 C 18.029438 34.987328 19.917797 36.069469 21.966797 36.605469 L 22.152344 40.712891 C 22.152653 40.719798 22.155802 40.725554 22.15625 40.732422 C 18.498798 40.073058 15.274794 38.170748 12.931641 35.474609 L 16.523438 33.486328 z M 33.396484 33.564453 L 37 35.548828 C 34.661929 38.204959 31.465244 40.078951 27.841797 40.732422 C 27.842126 40.72751 27.845444 40.723682 27.845703 40.71875 L 28.056641 36.599609 C 30.058641 36.070609 31.910484 35.018453 33.396484 33.564453 z"></path></symbol>
      <symbol id="lock"><path style=" " d="M 16 0 C 13.789063 0 11.878906 0.917969 10.6875 2.40625 C 9.496094 3.894531 9 5.824219 9 7.90625 L 9 9 L 12 9 L 12 7.90625 C 12 6.328125 12.390625 5.085938 13.03125 4.28125 C 13.671875 3.476563 14.542969 3 16 3 C 17.460938 3 18.328125 3.449219 18.96875 4.25 C 19.609375 5.050781 20 6.308594 20 7.90625 L 20 9 L 23 9 L 23 7.90625 C 23 5.8125 22.472656 3.863281 21.28125 2.375 C 20.089844 0.886719 18.207031 0 16 0 Z M 9 10 C 7.34375 10 6 11.34375 6 13 L 6 23 C 6 24.65625 7.34375 26 9 26 L 23 26 C 24.65625 26 26 24.65625 26 23 L 26 13 C 26 11.34375 24.65625 10 23 10 Z M 16 15 C 17.105469 15 18 15.894531 18 17 C 18 17.738281 17.597656 18.371094 17 18.71875 L 17 21 C 17 21.550781 16.550781 22 16 22 C 15.449219 22 15 21.550781 15 21 L 15 18.71875 C 14.402344 18.371094 14 17.738281 14 17 C 14 15.894531 14.894531 15 16 15 Z "></path></symbol>
      <!-- <svg  xmlns="http://www.w3.org/2000/svg" viewBox="0 0 24 24" class=" teal-fill fill-darken-3" style="height: 2rem;" ><use xlink:href="/fonts/icons.svg#filter" /></svg> -->
      <symbol id="filter"><path d="M10 18h4v-2h-4v2zM3 6v2h18V6H3zm3 7h12v-2H6v2z"/> --></symbol>
      <!-- <svg  xmlns="http://www.w3.org/2000/svg" viewBox="0 0 26 26" class=" teal-fill fill-darken-3" style="height: 2rem;" ><use xlink:href="/fonts/icons.svg#откуда" /></svg> -->
      <symbol id="откуда"><path transform000="rotate(180, 13, 13)" d="M 13 2 L 7 10 L 11 10 L 11 20 L 15 20 L 15 10 L 19 10 Z M 6.84375 16.28125 C 6.800781 16.289063 6.757813 16.300781 6.71875 16.3125 C 4.898438 16.625 3.367188 17.078125 2.1875 17.6875 C 1.597656 17.992188 1.082031 18.351563 0.6875 18.78125 C 0.292969 19.210938 0 19.773438 0 20.40625 C 0 21.355469 0.625 22.09375 1.375 22.625 C 2.125 23.15625 3.09375 23.5625 4.25 23.90625 C 6.558594 24.597656 9.621094 25 13 25 C 16.378906 25 19.441406 24.597656 21.75 23.90625 C 22.90625 23.5625 23.875 23.15625 24.625 22.625 C 25.375 22.09375 26 21.355469 26 20.40625 C 26 19.773438 25.710938 19.210938 25.3125 18.78125 C 24.914063 18.351563 24.410156 17.992188 23.8125 17.6875 C 22.621094 17.078125 21.027344 16.625 19.15625 16.3125 C 18.789063 16.222656 18.40625 16.347656 18.160156 16.632813 C 17.914063 16.917969 17.851563 17.320313 17.996094 17.667969 C 18.140625 18.015625 18.46875 18.253906 18.84375 18.28125 C 20.574219 18.570313 22 19.003906 22.90625 19.46875 C 23.359375 19.699219 23.679688 19.945313 23.84375 20.125 C 24.007813 20.304688 24 20.390625 24 20.40625 C 24 20.457031 23.9375 20.667969 23.46875 21 C 23 21.332031 22.207031 21.695313 21.1875 22 C 19.144531 22.609375 16.21875 23 13 23 C 9.78125 23 6.855469 22.609375 4.8125 22 C 3.792969 21.695313 3 21.332031 2.53125 21 C 2.0625 20.667969 2 20.457031 2 20.40625 C 2 20.390625 1.992188 20.304688 2.15625 20.125 C 2.320313 19.945313 2.644531 19.699219 3.09375 19.46875 C 3.988281 19.003906 5.382813 18.570313 7.0625 18.28125 C 7.613281 18.222656 8.011719 17.722656 7.953125 17.171875 C 7.894531 16.621094 7.394531 16.222656 6.84375 16.28125 Z "></path></symbol>
      <!-- <svg  xmlns="http://www.w3.org/2000/svg" viewBox="0 0 26 26" class=" teal-fill fill-darken-3" style="height: 2rem;" ><use xlink:href="/fonts/icons.svg#куда" /></svg> -->
      <symbol id="куда"><path style=" " d="M 11 1 L 11 11 L 7 11 L 13 19 L 19 11 L 15 11 L 15 1 Z M 6.84375 16.28125 C 6.800781 16.289063 6.757813 16.300781 6.71875 16.3125 C 4.898438 16.625 3.367188 17.078125 2.1875 17.6875 C 1.597656 17.992188 1.082031 18.351563 0.6875 18.78125 C 0.292969 19.210938 0 19.773438 0 20.40625 C 0 21.355469 0.625 22.09375 1.375 22.625 C 2.125 23.15625 3.09375 23.5625 4.25 23.90625 C 6.558594 24.597656 9.621094 25 13 25 C 16.378906 25 19.441406 24.597656 21.75 23.90625 C 22.90625 23.5625 23.875 23.15625 24.625 22.625 C 25.375 22.09375 26 21.355469 26 20.40625 C 26 19.773438 25.710938 19.210938 25.3125 18.78125 C 24.914063 18.351563 24.410156 17.992188 23.8125 17.6875 C 22.621094 17.078125 21.027344 16.625 19.15625 16.3125 C 18.789063 16.222656 18.40625 16.347656 18.160156 16.632813 C 17.914063 16.917969 17.851563 17.320313 17.996094 17.667969 C 18.140625 18.015625 18.46875 18.253906 18.84375 18.28125 C 20.574219 18.570313 22 19.003906 22.90625 19.46875 C 23.359375 19.699219 23.679688 19.945313 23.84375 20.125 C 24.007813 20.304688 24 20.390625 24 20.40625 C 24 20.457031 23.9375 20.667969 23.46875 21 C 23 21.332031 22.207031 21.695313 21.1875 22 C 19.144531 22.609375 16.21875 23 13 23 C 9.78125 23 6.855469 22.609375 4.8125 22 C 3.792969 21.695313 3 21.332031 2.53125 21 C 2.0625 20.667969 2 20.457031 2 20.40625 C 2 20.390625 1.992188 20.304688 2.15625 20.125 C 2.320313 19.945313 2.644531 19.699219 3.09375 19.46875 C 3.988281 19.003906 5.382813 18.570313 7.0625 18.28125 C 7.613281 18.222656 8.011719 17.722656 7.953125 17.171875 C 7.894531 16.621094 7.394531 16.222656 6.84375 16.28125 Z "></path></symbol>
      <!-- <svg  xmlns="http://www.w3.org/2000/svg" viewBox="0 0 252 252" class=" teal-fill fill-darken-3" style="height: 2rem;" ><use xlink:href="/fonts/icons.svg#расчет готов" /></svg> -->
      <symbol id="расчет готов"><g><g><g><path d="M120.96,5.04l0,59.34273c-29.45204,2.75614 -52.94509,26.86466 -54.73089,56.57727h-61.18911v-105.84c0,-5.55187 4.52813,-10.08 10.08,-10.08zM236.88,5.04c5.55188,0 10.08,4.52813 10.08,10.08v105.84l-59.98911,0c-1.80998,-30.11506 -25.91925,-54.47319 -55.93089,-56.67747l0,-59.24253zM60.48,40.32v20.16h-20.16c-2.77594,0 -5.04,2.26406 -5.04,5.04c0,2.77594 2.26406,5.04 5.04,5.04h20.16v20.16c0,2.77594 2.26406,5.04 5.04,5.04c2.77594,0 5.04,-2.26406 5.04,-5.04v-20.16h20.16c2.77594,0 5.04,-2.26406 5.04,-5.04c0,-2.77594 -2.26406,-5.04 -5.04,-5.04h-20.16v-20.16c0,-2.77594 -2.26406,-5.04 -5.04,-5.04c-2.77594,0 -5.04,2.26406 -5.04,5.04zM161.28,65.52c0,2.77594 2.24438,5.04 5.04,5.04h50.4c2.79563,0 5.04,-2.26406 5.04,-5.04c0,-2.77594 -2.24437,-5.04 -5.04,-5.04h-50.4c-2.79562,0 -5.04,2.26406 -5.04,5.04zM120.96,246.96h-105.84c-5.55187,0 -10.08,-4.52812 -10.08,-10.08v-105.84h61.42299c1.62121,15.13913 8.88833,28.65396 19.63846,38.3816c-1.94355,-1.25584 -4.54084,-1.02971 -6.24895,0.6784l-14.3325,14.3325l-14.3325,-14.3325c-0.98437,-0.98437 -2.18531,-1.4175 -3.465,-1.4175c-1.27969,0 -2.63812,0.43313 -3.6225,1.4175c-1.96875,1.96875 -1.96875,5.11875 0,7.0875l14.3325,14.3325l-14.3325,14.3325c-1.96875,1.96875 -1.96875,5.11875 0,7.0875c0.98438,0.98438 2.32313,1.4175 3.6225,1.4175c1.29938,0 2.48063,-0.43312 3.465,-1.4175l14.3325,-14.3325l14.3325,14.3325c0.98438,0.98438 2.16563,1.4175 3.465,1.4175c1.29938,0 2.63813,-0.43312 3.6225,-1.4175c1.96875,-1.96875 1.96875,-5.11875 0,-7.0875l-14.3325,-14.3325l14.3325,-14.3325c1.86352,-1.86352 1.96313,-4.78539 0.29882,-6.76204c9.25466,7.96664 20.92553,13.19439 33.72118,14.39181zM246.96,131.04v105.84c0,5.55188 -4.52812,10.08 -10.08,10.08h-105.84v-62.04253c11.62928,-0.85414 22.37232,-5.0347 31.27511,-11.58765c-0.64995,0.84855 -1.03511,1.91206 -1.03511,3.07018c0,2.79563 2.24438,5.04 5.04,5.04h50.4c2.79563,0 5.04,-2.24437 5.04,-5.04c0,-2.79562 -2.24437,-5.04 -5.04,-5.04h-50.4c-0.69066,0 -1.34767,0.13698 -1.94551,0.38542c12.23965,-9.83769 20.60787,-24.32021 22.36252,-40.70542zM161.28,206.64c0,2.79563 2.24438,5.04 5.04,5.04h50.4c2.79563,0 5.04,-2.24437 5.04,-5.04c0,-2.79562 -2.24437,-5.04 -5.04,-5.04h-50.4c-2.79562,0 -5.04,2.24438 -5.04,5.04z"></path></g></g><g><g><path d="M126.6,74.2c-27.72,0 -50.4,22.68 -50.4,50.4c0,27.72 22.68,50.4 50.4,50.4c27.72,0 50.4,-22.68 50.4,-50.4c0,-27.72 -22.68,-50.4 -50.4,-50.4zM122.064,146.776l-23.688,-18.144l6.048,-8.064l16.632,12.096l27.216,-31.752l7.56,6.552z"></path></g></g></g></symbol>
      <!-- <svg  xmlns="http://www.w3.org/2000/svg" viewBox="0 0 50 50" class=" teal-fill fill-darken-3" style="height: 2rem;" ><use xlink:href="/fonts/icons.svg#крыжик1" /></svg> -->
      <symbol id="крыжик1"><path  d="M 7 2 C 4.199219 2 2 4.199219 2 7 L 2 34 C 2 36.800781 4.199219 39 7 39 L 34 39 C 36.800781 39 39 36.800781 39 34 L 39 7 C 39 6.5 38.914063 6 38.8125 5.5 L 19.09375 27.40625 L 9.40625 18.6875 L 10.6875 17.1875 L 19 24.5 L 37.6875 3.6875 C 36.789063 2.6875 35.5 2 34 2 Z M 41 11 L 41 35 C 41 38.300781 38.300781 41 35 41 L 11 41 L 11 43 C 11 45.800781 13.199219 48 16 48 L 43 48 C 45.800781 48 48 45.800781 48 43 L 48 16 C 48 13.199219 45.800781 11 43 11 Z "></path></symbol>
      <!-- <svg  xmlns="http://www.w3.org/2000/svg" viewBox="0 0 50 50" class=" teal-fill fill-darken-3" style="height: 2rem;" ><use xlink:href="/fonts/icons.svg#отменить" /></svg> кружок перечеркнут как знак остановка запрещена-->
      <symbol id="отменить"><path d="M25,2C12.317,2,2,12.318,2,25s10.317,23,23,23s23-10.318,23-23S37.683,2,25,2z M7,25c0-4.062,1.371-7.8,3.65-10.815 L35.815,39.35C32.8,41.629,29.062,43,25,43C15.075,43,7,34.925,7,25z M39.35,35.815L14.185,10.65C17.2,8.371,20.938,7,25,7 c9.925,0,18,8.075,18,18C43,29.062,41.629,32.8,39.35,35.815z"></path></symbol>
      <!-- <svg  xmlns="http://www.w3.org/2000/svg" viewBox="0 0 24 24" class=" teal-fill fill-darken-3" style="height: 2rem;" ><use xlink:href="/fonts/icons.svg#вернуть" /></svg> загнутая стрелка назад влево-->
      <symbol id="вернуть"><path style=" " d="M 8.78125 2.28125 L 2.78125 8.28125 L 2.09375 9 L 2.78125 9.71875 L 8.78125 15.71875 L 10.21875 14.28125 L 5.9375 10 L 17 10 C 19.753906 10 22 12.246094 22 15 C 22 17.753906 19.753906 20 17 20 L 15 20 L 15 22 L 17 22 C 20.84375 22 24 18.84375 24 15 C 24 11.15625 20.84375 8 17 8 L 5.9375 8 L 10.21875 3.71875 Z M 3 20 L 3 22 L 5 22 L 5 20 Z M 7 20 L 7 22 L 9 22 L 9 20 Z M 11 20 L 11 22 L 13 22 L 13 20 Z "></path></symbol>
      <!-- <svg  xmlns="http://www.w3.org/2000/svg" viewBox="0 0 24 24" class=" teal-fill fill-darken-3" style="height: 2rem;" ><use xlink:href="/fonts/icons.svg#сохранить" /></svg> дискета-->
      <symbol id="сохранить"><path d="M17 3H5c-1.11 0-2 .9-2 2v14c0 1.1.89 2 2 2h14c1.1 0 2-.9 2-2V7l-4-4zm-5 16c-1.66 0-3-1.34-3-3s1.34-3 3-3 3 1.34 3 3-1.34 3-3 3zm3-10H5V5h10v4z"/></symbol>
      <!-- <svg  xmlns="http://www.w3.org/2000/svg" viewBox="0 0 50 50" class=" teal-fill fill-darken-3" style="height: 2rem;" ><use xlink:href="/fonts/icons.svg#!знак-в-залитом-кружке" /></svg> -->
      <symbol id="!знак-в-залитом-кружке"><path style="" d="M 25 2 C 12.309295 2 2 12.309295 2 25 C 2 37.690705 12.309295 48 25 48 C 37.690705 48 48 37.690705 48 25 C 48 12.309295 37.690705 2 25 2 z M 25 4 C 36.609824 4 46 13.390176 46 25 C 46 36.609824 36.609824 46 25 46 C 13.390176 46 4 36.609824 4 25 C 4 13.390176 13.390176 4 25 4 z M 25 6 C 14.523 6 6 14.523 6 25 C 6 35.477 14.523 44 25 44 C 35.477 44 44 35.477 44 25 C 44 14.523 35.477 6 25 6 z M 24 13 L 26 13 C 26.552 13 27 13.448 27 14 L 27 27 C 27 27.552 26.552 28 26 28 L 24 28 C 23.448 28 23 27.552 23 27 L 23 14 C 23 13.448 23.448 13 24 13 z M 24 32 L 26 32 C 26.552 32 27 32.448 27 33 L 27 35 C 27 35.552 26.552 36 26 36 L 24 36 C 23.448 36 23 35.552 23 35 L 23 33 C 23 32.448 23.448 32 24 32 z"></path></symbol>
      <!-- <svg  xmlns="http://www.w3.org/2000/svg" viewBox="0 0 50 50" class=" teal-fill fill-darken-3" style="height: 2rem;" ><use xlink:href="/fonts/icons.svg#сигма-знак" /></svg> -->
      <symbol id="сигма-знак"><path style=" " d="M 42.199219 50 L 4.101563 50 C 3.28125 50 2.101563 49.429688 2.101563 48.398438 C 2.101563 48.164063 2.183594 47.9375 2.332031 47.757813 C 8.601563 40.257813 14.875 32.800781 21.5 24.988281 C 14.828125 16.808594 2.457031 1.789063 2.328125 1.636719 C 2.082031 1.335938 2.03125 0.921875 2.195313 0.574219 C 2.359375 0.222656 2.714844 0 3.101563 0 L 42 0 C 42.554688 0 43 0.449219 43 1 L 43 12.5 C 43 13.050781 42.554688 13.5 42 13.5 L 40.699219 13.5 C 39.675781 13.5 39.046875 13.015625 38.832031 12.054688 C 38.777344 11.875 38.742188 11.695313 38.714844 11.515625 C 38.695313 11.417969 38.683594 11.316406 38.652344 11.21875 C 37.457031 7.230469 37.058594 5.898438 31.898438 5.898438 C 28.324219 5.980469 22.195313 5.996094 18.9375 6 L 22.148438 10.214844 C 25.15625 14.160156 28.105469 18.03125 31.292969 22.191406 C 31.574219 22.5625 31.566406 23.078125 31.273438 23.4375 L 16.816406 41 L 34.421875 41.003906 C 37.570313 41.003906 39.683594 39.632813 40.878906 36.808594 C 40.914063 36.691406 41.007813 36.496094 41.105469 36.304688 C 41.160156 36.195313 41.214844 36.089844 41.253906 35.980469 C 41.742188 34.300781 43.019531 33.273438 44.660156 33.273438 C 44.984375 33.273438 45.1875 33.316406 45.1875 33.316406 C 45.71875 33.429688 46.082031 33.953125 45.980469 34.488281 L 43.183594 49.1875 C 43.09375 49.660156 42.679688 50 42.199219 50 Z "></path></symbol>
      <!-- <svg  xmlns="http://www.w3.org/2000/svg" viewBox="0 0 26 26" class=" teal-fill fill-darken-3" style="height: 2rem;" ><use xlink:href="/fonts/icons.svg#download" /></svg> -->
      <symbol id="download"><path style=" " d="M 11 0 C 9.34375 0 8 1.34375 8 3 L 8 11 L 4.75 11 C 3.339844 11 3.042969 11.226563 4.25 12.4375 L 10.84375 19.03125 C 13.042969 21.230469 13.015625 21.238281 15.21875 19.03125 L 21.78125 12.4375 C 22.988281 11.226563 22.585938 11 21.3125 11 L 18 11 L 18 3 C 18 1.34375 16.65625 0 15 0 Z M 0 19 L 0 23 C 0 24.65625 1.34375 26 3 26 L 23 26 C 24.65625 26 26 24.65625 26 23 L 26 19 L 24 19 L 24 23 C 24 23.550781 23.550781 24 23 24 L 3 24 C 2.449219 24 2 23.550781 2 23 L 2 19 Z "></path></symbol>
      <!-- <svg  xmlns="http://www.w3.org/2000/svg" viewBox="0 0 64 64" class=" teal-fill fill-darken-3" style="height: 2rem;" ><use xlink:href="/fonts/icons.svg#form-add" /></svg> -->
      <symbol id="form-add"><path style=" " d="M 9 6 C 7.347656 6 6 7.347656 6 9 L 6 53 C 6 54.652344 7.347656 56 9 56 L 39.003906 56 C 40.96875 60.691406 45.601563 64 51 64 C 58.167969 64 64 58.167969 64 51 C 64 46.410156 61.601563 42.375 58 40.0625 L 58 9 C 58 7.347656 56.652344 6 55 6 Z M 9 8 L 55 8 C 55.550781 8 56 8.449219 56 9 L 56 39.003906 C 54.460938 38.359375 52.769531 38 51 38 C 43.832031 38 38 43.832031 38 51 C 38 52.035156 38.132813 53.035156 38.363281 54 L 9 54 C 8.449219 54 8 53.550781 8 53 L 8 9 C 8 8.449219 8.449219 8 9 8 Z M 12 10 C 11.445313 10 11 10.449219 11 11 L 11 13 C 11 13.550781 11.445313 14 12 14 C 12.554688 14 13 13.550781 13 13 L 13 11 C 13 10.449219 12.554688 10 12 10 Z M 17 10 C 16.445313 10 16 10.449219 16 11 L 16 13 C 16 13.550781 16.445313 14 17 14 C 17.554688 14 18 13.550781 18 13 L 18 11 C 18 10.449219 17.554688 10 17 10 Z M 22 10 C 21.445313 10 21 10.449219 21 11 L 21 13 C 21 13.550781 21.445313 14 22 14 C 22.554688 14 23 13.550781 23 13 L 23 11 C 23 10.449219 22.554688 10 22 10 Z M 27 10 C 26.445313 10 26 10.449219 26 11 L 26 13 C 26 13.550781 26.445313 14 27 14 C 27.554688 14 28 13.550781 28 13 L 28 11 C 28 10.449219 27.554688 10 27 10 Z M 32 10 C 31.445313 10 31 10.449219 31 11 L 31 13 C 31 13.550781 31.445313 14 32 14 C 32.554688 14 33 13.550781 33 13 L 33 11 C 33 10.449219 32.554688 10 32 10 Z M 37 10 C 36.445313 10 36 10.449219 36 11 L 36 13 C 36 13.550781 36.445313 14 37 14 C 37.554688 14 38 13.550781 38 13 L 38 11 C 38 10.449219 37.554688 10 37 10 Z M 42 10 C 41.445313 10 41 10.449219 41 11 L 41 13 C 41 13.550781 41.445313 14 42 14 C 42.554688 14 43 13.550781 43 13 L 43 11 C 43 10.449219 42.554688 10 42 10 Z M 47 10 C 46.445313 10 46 10.449219 46 11 L 46 13 C 46 13.550781 46.445313 14 47 14 C 47.554688 14 48 13.550781 48 13 L 48 11 C 48 10.449219 47.554688 10 47 10 Z M 52 10 C 51.445313 10 51 10.449219 51 11 L 51 13 C 51 13.550781 51.445313 14 52 14 C 52.554688 14 53 13.550781 53 13 L 53 11 C 53 10.449219 52.554688 10 52 10 Z M 17 24 C 16.445313 24 16 24.449219 16 25 C 16 25.550781 16.445313 26 17 26 L 35 26 C 35.554688 26 36 25.550781 36 25 C 36 24.449219 35.554688 24 35 24 Z M 39 24 C 38.445313 24 38 24.449219 38 25 C 38 25.550781 38.445313 26 39 26 L 45 26 C 45.554688 26 46 25.550781 46 25 C 46 24.449219 45.554688 24 45 24 Z M 17 30 C 16.445313 30 16 30.449219 16 31 C 16 31.550781 16.445313 32 17 32 L 39 32 C 39.554688 32 40 31.550781 40 31 C 40 30.449219 39.554688 30 39 30 Z M 17 36 C 16.445313 36 16 36.449219 16 37 C 16 37.550781 16.445313 38 17 38 L 43 38 C 43.554688 38 44 37.550781 44 37 C 44 36.449219 43.554688 36 43 36 Z M 51 40 C 57.066406 40 62 44.933594 62 51 C 62 57.066406 57.066406 62 51 62 C 44.933594 62 40 57.066406 40 51 C 40 44.933594 44.933594 40 51 40 Z M 51 44 C 50.445313 44 50 44.449219 50 45 L 50 50 L 45 50 C 44.445313 50 44 50.449219 44 51 C 44 51.550781 44.445313 52 45 52 L 50 52 L 50 57 C 50 57.550781 50.445313 58 51 58 C 51.554688 58 52 57.550781 52 57 L 52 52 L 57 52 C 57.554688 52 58 51.550781 58 51 C 58 50.449219 57.554688 50 57 50 L 52 50 L 52 45 C 52 44.449219 51.554688 44 51 44 Z "></path></symbol>
      <!-- <svg  xmlns="http://www.w3.org/2000/svg" viewBox="0 0 24 24" class=" teal-fill fill-darken-3" style="height: 1.5rem;" ><use xlink:href="/fonts/icons.svg#cancel" /></svg> -->
      <symbol id="cancel"><path style=" " d="M 12 2 C 6.5 2 2 6.5 2 12 C 2 17.5 6.5 22 12 22 C 17.5 22 22 17.5 22 12 C 22 6.5 17.5 2 12 2 Z M 16.898438 15.5 L 15.5 16.898438 L 12 13.398438 L 8.5 16.898438 L 7.101563 15.5 L 10.601563 12 L 7.101563 8.5 L 8.5 7.101563 L 12 10.601563 L 15.5 7.101563 L 16.898438 8.5 L 13.398438 12 Z "></path></symbol>
      <!-- <svg  xmlns="http://www.w3.org/2000/svg" viewBox="0 0 30 30" class=" teal-fill fill-darken-3" style="height: 1.2rem;" ><use xlink:href="/fonts/icons.svg#comment" /></svg> коммент descr -->
      <symbol id="comment"><path d="M 7 4 C 5.3550302 4 4 5.3550302 4 7 L 4 23 C 4 24.64497 5.3550302 26 7 26 L 19.5 26 A 1.0001 1.0001 0 0 0 20.207031 25.707031 L 25.707031 20.207031 A 1.0001 1.0001 0 0 0 26 19.5 L 26 7 C 26 5.3550302 24.64497 4 23 4 L 7 4 z M 7 6 L 23 6 C 23.56503 6 24 6.4349698 24 7 L 24 19 L 21 19 C 19.895 19 19 19.895 19 21 L 19 24 L 7 24 C 6.4349698 24 6 23.56503 6 23 L 6 7 C 6 6.4349698 6.4349698 6 7 6 z M 10 11 A 1.0001 1.0001 0 1 0 10 13 L 14 13 A 1.0001 1.0001 0 1 0 14 11 L 10 11 z M 18 11 A 1.0001 1.0001 0 1 0 18 13 L 20 13 A 1.0001 1.0001 0 1 0 20 11 L 18 11 z M 10 15 A 1.0001 1.0001 0 1 0 10 17 L 18 17 A 1.0001 1.0001 0 1 0 18 15 L 10 15 z"></path></symbol>
      <!-- <svg  xmlns="http://www.w3.org/2000/svg" viewBox="0 0 24 24" class=" teal-fill fill-darken-3" style="height: 1.2rem;" ><use xlink:href="/fonts/icons.svg#shopping-cart" /></svg> -->
      <symbol id="shopping-cart"><path d="M7 18c-1.1 0-1.99.9-1.99 2S5.9 22 7 22s2-.9 2-2-.9-2-2-2zM1 2v2h2l3.6 7.59-1.35 2.45c-.16.28-.25.61-.25.96 0 1.1.9 2 2 2h12v-2H7.42c-.14 0-.25-.11-.25-.25l.03-.12.9-1.63h7.45c.75 0 1.41-.41 1.75-1.03l3.58-6.49c.08-.14.12-.31.12-.48 0-.55-.45-1-1-1H5.21l-.94-2H1zm16 16c-1.1 0-1.99.9-1.99 2s.89 2 1.99 2 2-.9 2-2-.9-2-2-2z"/></symbol>
      <!-- <svg  xmlns="http://www.w3.org/2000/svg" viewBox="0 0 24 24" class=" teal-fill fill-darken-3" style="height: 1.2rem;" ><use xlink:href="/fonts/icons.svg#remove-shopping-cart" /></svg>  -->
      <symbol id="remove-shopping-cart"><path d="M22.73 22.73L2.77 2.77 2 2l-.73-.73L0 2.54l4.39 4.39 2.21 4.66-1.35 2.45c-.16.28-.25.61-.25.96 0 1.1.9 2 2 2h7.46l1.38 1.38c-.5.36-.83.95-.83 1.62 0 1.1.89 2 1.99 2 .67 0 1.26-.33 1.62-.84L21.46 24l1.27-1.27zM7.42 15c-.14 0-.25-.11-.25-.25l.03-.12.9-1.63h2.36l2 2H7.42zm8.13-2c.75 0 1.41-.41 1.75-1.03l3.58-6.49c.08-.14.12-.31.12-.48 0-.55-.45-1-1-1H6.54l9.01 9zM7 18c-1.1 0-1.99.9-1.99 2S5.9 22 7 22s2-.9 2-2-.9-2-2-2z"/></symbol>
      <!-- <svg  xmlns="http://www.w3.org/2000/svg" viewBox="0 0 30 30" class=" teal-fill fill-darken-3" style="height: 1.2rem;" ><use xlink:href="/fonts/icons.svg#star" /></svg>  -->
      <symbol id="star"><path d="M15.765,2.434l2.875,8.512l8.983,0.104c0.773,0.009,1.093,0.994,0.473,1.455l-7.207,5.364l2.677,8.576 c0.23,0.738-0.607,1.346-1.238,0.899L15,22.147l-7.329,5.196c-0.63,0.447-1.468-0.162-1.238-0.899l2.677-8.576l-7.207-5.364 c-0.62-0.461-0.3-1.446,0.473-1.455l8.983-0.104l2.875-8.512C14.482,1.701,15.518,1.701,15.765,2.434z"/></symbol>
      <!-- <svg  xmlns="http://www.w3.org/2000/svg" viewBox="0 0 50 50" class=" teal-fill fill-darken-3" style="height: 1.2rem;" ><use xlink:href="/fonts/icons.svg#контора" /></svg>  -->
      <symbol id="контора"><path style=" " d="M 7 2 L 7 5 L 31 5 L 31 2 Z M 2 7 L 2 46 L 16.078125 46 C 16.035156 46.320313 16 46.648438 16 47 L 16 48 L 48.050781 48 L 47.992188 46.941406 C 47.902344 45.363281 47.316406 44.117188 46.488281 43.222656 C 45.664063 42.328125 44.644531 41.765625 43.679688 41.320313 C 42.714844 40.875 41.785156 40.535156 41.109375 40.171875 C 40.464844 39.832031 40.148438 39.511719 40 39.160156 L 40 37.472656 C 40.597656 36.609375 40.859375 35.617188 40.9375 34.6875 C 41.414063 34.265625 41.96875 33.617188 42.125 32.457031 C 42.230469 31.625 42.019531 30.996094 41.695313 30.464844 C 42.144531 29.277344 42.328125 27.84375 41.933594 26.417969 C 41.707031 25.589844 41.277344 24.777344 40.5625 24.171875 C 40.003906 23.691406 39.238281 23.425781 38.390625 23.308594 L 37.75 22 L 37.125 22 C 36.746094 22 36.371094 22.042969 36 22.097656 L 36 7 Z M 8 12 L 12 12 L 12 14 L 8 14 Z M 17 12 L 21 12 L 21 14 L 17 14 Z M 26 12 L 30 12 L 30 14 L 26 14 Z M 8 17 L 12 17 L 12 19 L 8 19 Z M 17 17 L 21 17 L 21 19 L 17 19 Z M 26 17 L 30 17 L 30 19 L 26 19 Z M 8 22 L 12 22 L 12 24 L 8 24 Z M 17 22 L 21 22 L 21 24 L 17 24 Z M 28.4375 22.113281 L 29.027344 23.300781 L 29.644531 23.300781 C 30.464844 23.300781 30.96875 23.535156 31.371094 23.894531 C 31.773438 24.257813 32.066406 24.796875 32.238281 25.429688 C 32.582031 26.695313 32.289063 28.339844 32.007813 28.792969 L 31.644531 29.371094 L 32.050781 29.921875 C 32.289063 30.238281 32.441406 30.566406 32.363281 31.007813 C 32.253906 31.625 32.03125 31.707031 31.589844 32.089844 L 31.257813 32.375 L 31.246094 32.8125 C 31.210938 33.792969 30.871094 34.777344 30.300781 35.339844 L 30 35.632813 L 30 38.988281 L 30.058594 39.152344 C 30.453125 40.25 31.335938 40.933594 32.234375 41.429688 C 33.132813 41.925781 34.101563 42.289063 34.976563 42.714844 C 35.851563 43.140625 36.609375 43.625 37.132813 44.261719 C 37.496094 44.699219 37.71875 45.289063 37.855469 46 L 18.144531 46 C 18.28125 45.289063 18.503906 44.699219 18.867188 44.261719 C 19.390625 43.625 20.148438 43.140625 21.023438 42.714844 C 21.898438 42.289063 22.867188 41.925781 23.765625 41.429688 C 24.664063 40.933594 25.546875 40.25 25.941406 39.152344 L 26 38.988281 L 26 35.523438 L 25.5625 35.226563 C 25.101563 34.914063 24.34375 33.769531 24.238281 32.742188 L 24.183594 32.1875 L 23.683594 31.945313 C 23.398438 31.808594 23.082031 31.753906 23.050781 31.015625 C 23.050781 31.015625 23.082031 30.824219 23.15625 30.65625 C 23.234375 30.484375 23.375 30.304688 23.332031 30.347656 L 23.8125 29.867188 L 23.542969 29.242188 C 22.796875 27.523438 22.898438 25.722656 23.761719 24.367188 C 24.550781 23.125 26.097656 22.269531 28.4375 22.113281 Z M 36.558594 24.113281 L 37.089844 25.199219 L 37.714844 25.199219 C 38.472656 25.199219 38.921875 25.398438 39.265625 25.691406 C 39.613281 25.984375 39.859375 26.414063 40.003906 26.949219 C 40.300781 28.019531 40.085938 29.480469 39.746094 30.144531 L 39.417969 30.796875 L 39.933594 31.308594 C 39.867188 31.242188 40.195313 31.785156 40.140625 32.195313 C 40.011719 33.175781 39.871094 33.113281 39.449219 33.390625 L 39.03125 33.667969 L 39 34.171875 C 38.953125 35.042969 38.515625 36.351563 38.28125 36.589844 L 38 36.878906 L 38 39.621094 L 38.058594 39.78125 C 38.4375 40.835938 39.296875 41.476563 40.167969 41.9375 C 41.035156 42.398438 41.980469 42.738281 42.84375 43.136719 C 43.707031 43.535156 44.476563 43.984375 45.019531 44.578125 C 45.367188 44.953125 45.601563 45.433594 45.769531 46 L 39.921875 46 C 39.757813 44.777344 39.3125 43.765625 38.675781 42.988281 C 37.875 42.011719 36.84375 41.398438 35.855469 40.917969 C 34.867188 40.4375 33.910156 40.070313 33.203125 39.679688 C 32.527344 39.308594 32.175781 38.953125 32 38.53125 L 32 36.296875 C 32.691406 35.421875 33.054688 34.390625 33.15625 33.34375 C 33.542969 33.003906 34.144531 32.417969 34.332031 31.359375 C 34.484375 30.492188 34.226563 29.785156 33.90625 29.210938 C 34.4375 27.988281 34.59375 26.460938 34.167969 24.902344 C 34.164063 24.886719 34.15625 24.871094 34.152344 24.855469 C 34.367188 24.71875 34.640625 24.5625 34.949219 24.441406 C 35.4375 24.25 36.007813 24.179688 36.558594 24.113281 Z M 8 27 L 12 27 L 12 29 L 8 29 Z M 17 27 L 21 27 L 21 29 L 17 29 Z M 8 32 L 12 32 L 12 34 L 8 34 Z M 17 32 L 21 32 L 21 34 L 17 34 Z M 8 37 L 12 37 L 12 39 L 8 39 Z M 17 37 L 21 37 L 21 39 L 17 39 Z "></path></symbol>
      <!-- <svg  xmlns="http://www.w3.org/2000/svg" viewBox="0 0 50 50" class=" teal-fill fill-darken-3" style="height: 1.2rem;" ><use xlink:href="/fonts/icons.svg#две-стрелки-180-град" /></svg>  -->
      <symbol id="две-стрелки-180-град"><path style=" " d="M 45.414063 39.414063 L 38.414063 46.414063 C 38.023438 46.804688 37.511719 47 37 47 C 36.488281 47 35.976563 46.804688 35.585938 46.414063 L 28.585938 39.414063 C 27.804688 38.632813 27.804688 37.367188 28.585938 36.585938 C 29.367188 35.804688 30.632813 35.804688 31.414063 36.585938 L 35 40.171875 L 35 17 C 35 15.894531 35.894531 15 37 15 C 38.105469 15 39 15.894531 39 17 L 39 40.171875 L 42.585938 36.585938 C 43.367188 35.804688 44.632813 35.804688 45.414063 36.585938 C 46.195313 37.367188 46.195313 38.632813 45.414063 39.414063 Z M 37 7 C 38.105469 7 39 6.105469 39 5 C 39 3.894531 38.105469 3 37 3 C 35.894531 3 35 3.894531 35 5 C 35 6.105469 35.894531 7 37 7 Z M 37 13 C 38.105469 13 39 12.105469 39 11 C 39 9.894531 38.105469 9 37 9 C 35.894531 9 35 9.894531 35 11 C 35 12.105469 35.894531 13 37 13 Z M 14.414063 3.585938 C 13.632813 2.804688 12.367188 2.804688 11.585938 3.585938 L 4.585938 10.585938 C 3.804688 11.367188 3.804688 12.632813 4.585938 13.414063 C 5.367188 14.195313 6.632813 14.195313 7.414063 13.414063 L 11 9.828125 L 11 33 C 11 34.105469 11.894531 35 13 35 C 14.105469 35 15 34.105469 15 33 L 15 9.828125 L 18.585938 13.414063 C 18.976563 13.804688 19.488281 14 20 14 C 20.511719 14 21.023438 13.804688 21.414063 13.414063 C 22.195313 12.632813 22.195313 11.367188 21.414063 10.585938 Z M 13 43 C 11.894531 43 11 43.894531 11 45 C 11 46.105469 11.894531 47 13 47 C 14.105469 47 15 46.105469 15 45 C 15 43.894531 14.105469 43 13 43 Z M 13 37 C 11.894531 37 11 37.894531 11 39 C 11 40.105469 11.894531 41 13 41 C 14.105469 41 15 40.105469 15 39 C 15 37.894531 14.105469 37 13 37 Z "></path></symbol>
      <!-- <svg  xmlns="http://www.w3.org/2000/svg" viewBox="0 0 26 26" class=" teal-fill fill-darken-3" style="height: 1.2rem;" ><use xlink:href="/fonts/icons.svg#стрелка-вниз-в-круге" /></svg>  -->
      <symbol id="стрелка-вниз-в-круге"><path style=" " d="M 13 1 C 6.398438 1 1 6.398438 1 13 C 1 19.601563 6.398438 25 13 25 C 19.601563 25 25 19.601563 25 13 C 25 6.398438 19.601563 1 13 1 Z M 18.601563 14.199219 C 16.601563 17.101563 13.601563 19.800781 13.398438 19.898438 C 13.300781 19.898438 13.199219 20 13 20 C 12.800781 20 12.699219 19.898438 12.5 19.800781 C 12.398438 19.699219 9.300781 17 7.300781 14.101563 C 7.101563 13.898438 7.101563 13.601563 7.300781 13.300781 C 7.5 13.199219 7.699219 13 8 13 L 10.601563 13 C 10.601563 13 10.898438 6.898438 11.101563 6.601563 C 11.398438 6.300781 12.199219 6 13 6 C 13.699219 6 14.5 6.300781 14.800781 6.601563 C 15 6.898438 15.398438 13 15.398438 13 L 18 13 C 18.300781 13 18.5 13.101563 18.601563 13.398438 C 18.800781 13.601563 18.800781 13.898438 18.601563 14.199219 Z "/></symbol>
      <!-- <svg  xmlns="http://www.w3.org/2000/svg" viewBox="0 0 24 24" class=" teal-fill fill-darken-3" style="height: 1.2rem;" ><use xlink:href="/fonts/icons.svg#шеврон-вниз-в-круге" /></svg>  -->
      <symbol id="шеврон-вниз-в-круге"><path d="M12 2C6.48 2 2 6.48 2 12s4.48 10 10 10 10-4.48 10-10S17.52 2 12 2zm0 12l-4-4h8l-4 4z"/></symbol>
      <!-- <svg  xmlns="http://www.w3.org/2000/svg" viewBox="0 0 50 50" class=" teal-fill fill-darken-3" style="height: 1.2rem;" ><use xlink:href="/fonts/icons.svg#трубка-в-круге" /></svg> phone телефон -->
      <symbol id="трубка-в-круге"><g><path d="M25,50c-13.80712,0 -25,-11.19288 -25,-25l0,0c0,-13.80712 11.19288,-25 25,-25l0,0c13.80712,0 25,11.19288 25,25l0,0c0,13.80712 -11.19288,25 -25,25z M25,48c12.70255,0 23,-10.29745 23,-23l0,0c0,-12.70255 -10.29745,-23 -23,-23l0,0c-12.70255,0 -23,10.29745 -23,23l0,0c0,12.70255 10.29745,23 23,23z"></path><g><path d="M36.2253,42.59982c-0.0125,0 -0.025,0 -0.0375,0c-6.0125,-0.19688 -13.05625,-6.025 -17.90937,-10.88125c-4.85937,-4.85625 -10.6875,-11.90312 -10.875,-17.8875c-0.06875,-2.1 5.08437,-5.83437 5.1375,-5.87187c1.3375,-0.93125 2.82187,-0.6 3.43125,0.24375c0.4125,0.57188 4.31875,6.49063 4.74375,7.1625c0.44063,0.69688 0.375,1.73437 -0.175,2.775c-0.30313,0.57813 -1.30937,2.34688 -1.78125,3.17188c0.50938,0.725 1.85625,2.50312 4.6375,5.28437c2.78437,2.78125 4.55937,4.13125 5.2875,4.64062c0.825,-0.47188 2.59375,-1.47812 3.17188,-1.78125c1.025,-0.54375 2.05625,-0.6125 2.75937,-0.18125c0.71875,0.44062 6.62187,4.36562 7.16562,4.74375c0.45625,0.32188 0.75,0.87188 0.80938,1.5125c0.05625,0.64688 -0.14375,1.33125 -0.55938,1.92813c-0.03438,0.05 -3.725,5.14063 -5.80625,5.14063z"></path></g></g></symbol>
      <!-- <svg  xmlns="http://www.w3.org/2000/svg" viewBox="0 0 26 26" class=" teal-fill fill-darken-3" style="height: 1.2rem;" ><use xlink:href="/fonts/icons.svg#link" /></svg>  -->
      <symbol id="link"><path style=" " d="M 19.625 0.15625 C 17.996094 0.234375 16.429688 0.945313 15.21875 2.15625 L 10.46875 6.90625 C 11.214844 6.15625 13.984375 6.671875 14.65625 7.34375 L 17.53125 4.46875 C 18.167969 3.832031 18.964844 3.441406 19.78125 3.40625 C 20.335938 3.378906 21.121094 3.496094 21.8125 4.1875 C 22.457031 4.832031 22.59375 5.582031 22.59375 6.09375 C 22.59375 6.949219 22.203125 7.800781 21.53125 8.46875 L 16.53125 13.5 C 15.273438 14.757813 13.359375 14.859375 12.25 13.75 C 11.617188 13.117188 10.574219 13.113281 9.9375 13.75 C 9.300781 14.386719 9.300781 15.425781 9.9375 16.0625 C 11.078125 17.203125 12.578125 17.78125 14.125 17.78125 C 15.796875 17.78125 17.503906 17.097656 18.8125 15.78125 L 23.84375 10.78125 C 25.121094 9.507813 25.84375 7.804688 25.84375 6.09375 C 25.84375 4.503906 25.242188 2.992188 24.125 1.875 C 22.929688 0.679688 21.324219 0.078125 19.625 0.15625 Z M 11.875 8.21875 C 10.203125 8.21875 8.46875 8.90625 7.15625 10.21875 L 2.15625 15.21875 C 0.878906 16.492188 0.15625 18.195313 0.15625 19.90625 C 0.15625 21.496094 0.757813 23.007813 1.875 24.125 C 3.070313 25.320313 4.675781 25.921875 6.375 25.84375 C 8.003906 25.765625 9.570313 25.054688 10.78125 23.84375 L 15.53125 19.09375 C 14.78125 19.84375 12.015625 19.328125 11.34375 18.65625 L 8.46875 21.53125 C 7.832031 22.167969 7.035156 22.554688 6.21875 22.59375 C 5.664063 22.621094 4.878906 22.503906 4.1875 21.8125 C 3.542969 21.167969 3.40625 20.414063 3.40625 19.90625 C 3.40625 19.050781 3.796875 18.199219 4.46875 17.53125 L 9.46875 12.5 C 10.726563 11.242188 12.640625 11.144531 13.75 12.25 C 14.386719 12.886719 15.429688 12.886719 16.0625 12.25 C 16.699219 11.613281 16.699219 10.574219 16.0625 9.9375 C 14.921875 8.796875 13.417969 8.21875 11.875 8.21875 Z "></path></symbol>
      
</svg>