<svg xmlns="http://www.w3.org/2000/svg">
<symbol id="renter"><!-- viewBox="0 0 512 450(512)" -->
<g>
  <path d="m494.878 222.466-47.123-123.582a29.1 29.1 0 0 0 -15.571-16.339 29.615 29.615 0 0 0 -22.963-.47 29.115 29.115 0 0 0 -16.341 15.912 28.641 28.641 0 0 0 .038 22.439l21.961 51.721a28.013 28.013 0 0 0 -30.879 27.853v62.056a40.647 40.647 0 0 1 -4.269 18.082 187.848 187.848 0 0 0 -19.731 83.584v20.278a8 8 0 0 0 -8 8v104h16v-96h96v96h16v-104a8 8 0 0 0 -8-8h-3.05l24.8-59.728a138.435 138.435 0 0 0 1.128-101.806zm-15.924 95.724-27.33 65.81h-75.624v-20.278a171.761 171.761 0 0 1 18.042-76.428 56.734 56.734 0 0 0 5.958-25.238v-62.056a11.993 11.993 0 0 1 23.976-.473c.009.322.024 96.473.024 96.473h16v-96c0-.558-.021-1.111-.053-1.661a49.43 49.43 0 0 0 -3.9-17.283l-28.4-66.877a12.757 12.757 0 0 1 -.015-10 13.238 13.238 0 0 1 7.446-7.22 13.721 13.721 0 0 1 10.642.218 13.214 13.214 0 0 1 7.086 7.4l47.123 123.583a122.456 122.456 0 0 1 -.975 90.03z"/>
  <path d="m152 384v-20.278a187.848 187.848 0 0 0 -19.731-83.584 40.647 40.647 0 0 1 -4.269-18.082v-62.056a28.013 28.013 0 0 0 -30.879-27.853l21.964-51.728a28.636 28.636 0 0 0 .035-22.432 29.115 29.115 0 0 0 -16.341-15.912 29.615 29.615 0 0 0 -22.963.47 29.1 29.1 0 0 0 -15.571 16.338l-47.123 123.583a138.473 138.473 0 0 0 1.147 101.861l24.781 59.673h-3.05a8 8 0 0 0 -8 8v104h16v-96h96v96h16v-104a8 8 0 0 0 -8-8zm-118.933-65.755a122.5 122.5 0 0 1 -1-90.078l47.127-123.584a13.216 13.216 0 0 1 7.086-7.4 13.725 13.725 0 0 1 10.642-.218 13.238 13.238 0 0 1 7.446 7.22 12.748 12.748 0 0 1 -.013 9.988l-28.4 66.884a49.43 49.43 0 0 0 -3.9 17.283c-.034.549-.055 97.66-.055 97.66h16s.015-96.151.024-96.473a11.993 11.993 0 0 1 23.976.473v62.056a56.734 56.734 0 0 0 5.958 25.238 171.761 171.761 0 0 1 18.042 76.428v20.278h-75.624z"/>
  <path d="m192 160h16v16h-16z"/>
  <path d="m224 160h16v16h-16z"/><path d="m192 192h16v16h-16z"/>
  <path d="m296 256h16v16h-16z"/><path d="m264 256h16v16h-16z"/>
  <path d="m192 224h16v16h-16z"/><path d="m192 256h16v16h-16z"/>
  <path d="m168 304h168a8 8 0 0 0 8-8v-56a8 8 0 0 0 8-8v-48a8 8 0 0 0 -9.132-7.92l-112 16a8 8 0 0 0 -6.868 7.92v32a8 8 0 0 0 8 8v48h-56v-144h80v24h16v-24a8 8 0 0 0 8-8v-48a8 8 0 0 0 -9.132-7.92l-112 16a8 8 0 0 0 -6.868 7.92v32a8 8 0 0 0 8 8v152a8 8 0 0 0 8 8zm72-97.062 96-13.714v30.776h-96zm8 33.062h80v48h-80zm-80-129.062 96-13.714v30.776h-96z"/>
  <!-- path d="m256 384a176.006 176.006 0 0 1 -86.968-22.952l-7.918 13.9a192.246 192.246 0 0 0 189.772 0l-7.918-13.9a176.006 176.006 0 0 1 -86.968 22.952z"/ -->
  <!-- path d="m256 32a174.6 174.6 0 0 1 126.436 53.565l11.492-11.13a192 192 0 0 0 -275.856 0l11.492 11.13a174.6 174.6 0 0 1 126.436-53.565z"/ -->
</g>
</symbol>

<!-- svg xmlns="http://www.w3.org/2000/svg" xmlns:xlink="http://www.w3.org/1999/xlink"  viewBox="0 0 490.667 490.667" xml:space="preserve" -->
<symbol id="email">
<g>
  <g>
    <path d="M437.333,10.667h-384C23.936,10.667,0,34.603,0,64v234.667C0,328.064,23.936,352,53.333,352H96    c5.888,0,10.667-4.779,10.667-10.667c0-5.888-4.779-10.667-10.667-10.667H53.333c-17.643,0-32-14.357-32-32V64    c0-17.643,14.357-32,32-32h384c17.643,0,32,14.357,32,32v234.667c0,17.643-14.357,32-32,32h-42.667    c-5.888,0-10.667,4.779-10.667,10.667c0,5.888,4.779,10.667,10.667,10.667h42.667c29.397,0,53.333-23.936,53.333-53.333V64    C490.667,34.603,466.731,10.667,437.333,10.667z"/>
  </g>
</g>
<g>
  <g>
    <path d="M445.995,57.749c-3.456-4.779-10.112-5.867-14.891-2.389l-165.76,119.701c-12.139,8.768-27.861,8.768-40,0L59.584,55.36    c-4.8-3.477-11.456-2.389-14.891,2.389c-3.456,4.779-2.389,11.456,2.389,14.891l165.76,119.701    c9.707,7.019,21.099,10.539,32.491,10.539s22.784-3.499,32.512-10.539L443.605,72.64    C448.363,69.205,449.451,62.528,445.995,57.749z"/>
  </g>
</g>


<g>
  <g>
    <path d="M245.333,245.333C180.629,245.333,128,297.963,128,362.667S180.629,480,245.333,480c30.635,0,59.605-11.712,81.579-33.003    c4.245-4.096,4.352-10.859,0.256-15.083c-4.096-4.245-10.837-4.309-15.083-0.256c-17.984,17.429-41.707,27.008-66.752,27.008    c-52.928,0-96-43.072-96-96c0-52.928,43.072-96,96-96s96,43.072,96,96c0,5.888,4.779,10.667,10.667,10.667    s10.667-4.779,10.667-10.667C362.667,297.963,310.037,245.333,245.333,245.333z"/>
  </g>
</g>
<g>
  <g>
    <path d="M245.333,309.333c-29.397,0-53.333,23.936-53.333,53.333S215.936,416,245.333,416s53.333-23.936,53.333-53.333    S274.731,309.333,245.333,309.333z M245.333,394.667c-17.643,0-32-14.357-32-32c0-17.643,14.357-32,32-32s32,14.357,32,32    C277.333,380.309,262.976,394.667,245.333,394.667z"/>
  </g>
</g>
<g>
  <g>
    <path d="M352,352c-5.888,0-10.667,4.779-10.667,10.667c0,23.936-5.376,32-21.333,32c-14.165,0-21.333-10.773-21.333-32    c0-5.888-4.779-10.667-10.667-10.667s-10.667,4.779-10.667,10.667C277.333,396.053,293.291,416,320,416    c42.667,0,42.667-40.149,42.667-53.333C362.667,356.779,357.888,352,352,352z"/>
  </g>
</g>



</symbol>



<!-- <svg xmlns="http://www.w3.org/2000/svg"  viewBox="-32 0 496 496"  -->
<symbol id="electric-meter">
  <path d="m392 0h-352c-22.054688 0-40 17.945312-40 40v304c0 22.054688 17.945312 40 40 40h24v48c0 4.414062 3.574219 8 8 8h40v48c0 4.414062 3.574219 8 8 8h32c4.425781 0 8-3.585938 8-8v-48h32v48c0 4.414062 3.574219 8 8 8h32c4.425781 0 8-3.585938 8-8v-48h32v48c0 4.414062 3.574219 8 8 8h32c4.425781 0 8-3.585938 8-8v-48h40c4.425781 0 8-3.585938 8-8v-48h24c22.054688 0 40-17.945312 40-40v-304c0-22.054688-17.945312-40-40-40zm-248 480h-16v-40h16zm80 0h-16v-40h16zm80 0h-16v-40h16zm48-56h-272v-40h272zm64-80c0 13.230469-10.769531 24-24 24h-352c-13.230469 0-24-10.769531-24-24v-304c0-13.230469 10.769531-24 24-24h352c13.230469 0 24 10.769531 24 24zm0 0"/><path d="m256 224h-24v-40c0-3.601562-2.398438-6.753906-5.863281-7.710938-3.449219-.960937-7.152344.503907-8.992188 3.589844l-48 80c-1.488281 2.472656-1.519531 5.554688-.105469 8.058594 1.417969 2.503906 4.082032 4.0625 6.960938 4.0625h24v40c0 3.601562 2.398438 6.753906 5.863281 7.710938.703125.191406 1.425781.289062 2.136719.289062 2.761719 0 5.390625-1.433594 6.855469-3.878906l48-80c1.488281-2.472656 1.519531-5.554688.105469-8.058594-1.417969-2.503906-4.082032-4.0625-6.960938-4.0625zm-40 59.121094v-19.121094c0-4.414062-3.574219-8-8-8h-17.863281l25.863281-43.121094v19.121094c0 4.414062 3.574219 8 8 8h17.863281zm0 0"/><path d="m384 32h-336c-8.824219 0-16 7.175781-16 16v288c0 8.824219 7.175781 16 16 16h336c8.824219 0 16-7.175781 16-16v-288c0-8.824219-7.175781-16-16-16zm-336 304v-288h336l.007812 288zm0 0"/><path d="m104 64h-32c-4.425781 0-8 3.585938-8 8v80c0 4.414062 3.574219 8 8 8h32c4.425781 0 8-3.585938 8-8v-80c0-4.414062-3.574219-8-8-8zm-8 80h-16v-64h16zm0 0"/><path d="m136 160h32c4.425781 0 8-3.585938 8-8v-80c0-4.414062-3.574219-8-8-8h-32c-4.425781 0-8 3.585938-8 8v80c0 4.414062 3.574219 8 8 8zm8-80h16v64h-16zm0 0"/><path d="m296 64h-32c-4.425781 0-8 3.585938-8 8v80c0 4.414062 3.574219 8 8 8h32c4.425781 0 8-3.585938 8-8v-80c0-4.414062-3.574219-8-8-8zm-8 80h-16v-64h16zm0 0"/><path d="m360 64h-32c-4.425781 0-8 3.585938-8 8v80c0 4.414062 3.574219 8 8 8h32c4.425781 0 8-3.585938 8-8v-80c0-4.414062-3.574219-8-8-8zm-8 80h-16v-64h16zm0 0"/><path d="m200 160h32c4.425781 0 8-3.585938 8-8v-80c0-4.414062-3.574219-8-8-8h-32c-4.425781 0-8 3.585938-8 8v80c0 4.414062 3.574219 8 8 8zm8-80h16v64h-16zm0 0"/><path d="m288 240h16v16h-16zm0 0"/><path d="m320 240h16v16h-16zm0 0"/><path d="m352 240h16v16h-16zm0 0"/><path d="m64 240h16v16h-16zm0 0"/><path d="m96 240h16v16h-16zm0 0"/><path d="m128 240h16v16h-16zm0 0"/>
</symbol>
</svg>