<?xml version="1.0" standalone="no"?>
<!DOCTYPE svg PUBLIC "-//W3C//DTD SVG 20010904//EN"
 "http://www.w3.org/TR/2001/REC-SVG-20010904/DTD/svg10.dtd">
<svg version="1.0" xmlns="http://www.w3.org/2000/svg"
 width="700.000000pt" height="700.000000pt" viewBox="0 0 700.000000 700.000000"
 preserveAspectRatio="xMidYMid meet">
<metadata>
Created by potrace 1.11, written by Peter Selinger 2001-2013
</metadata>
<g transform="translate(0.000000,700.000000) scale(0.100000,-0.100000)"
fill="#000000" stroke="none">
<path d="M1200 6647 c-3 -2 -25 -7 -50 -10 -117 -15 -318 -99 -420 -176 -126
-95 -232 -219 -297 -346 -26 -51 -61 -143 -64 -167 0 -4 -7 -29 -15 -55 -22
-70 -29 -257 -15 -350 39 -249 121 -395 346 -618 144 -143 176 -192 235 -360
33 -95 144 -477 175 -605 2 -8 20 -74 39 -147 20 -72 38 -142 40 -155 3 -13
12 -52 20 -88 22 -94 20 -125 -6 -142 -58 -37 -122 -42 -718 -53 -252 -4 -383
-11 -399 -18 -13 -7 -34 -30 -45 -52 -19 -36 -21 -56 -20 -220 1 -186 0 -183
69 -500 14 -62 113 -365 152 -464 172 -437 412 -786 823 -1200 100 -102 243
-233 282 -259 13 -9 25 -19 28 -22 17 -23 196 -149 310 -219 249 -154 286
-195 269 -296 -3 -22 -10 -60 -14 -83 l-8 -44 1464 5 c805 2 1478 7 1494 10
17 2 56 8 88 12 80 9 97 28 92 99 -4 52 -1 59 34 103 38 48 86 84 321 245 69
47 144 101 166 119 22 19 56 45 74 59 18 14 40 32 49 40 9 9 52 48 96 87 274
242 545 551 710 807 202 315 387 815 475 1291 7 33 14 156 17 273 6 203 5 212
-13 213 -72 3 -1050 -1 -1143 -6 -254 -11 -310 -26 -463 -117 -40 -24 -89 -51
-108 -60 -142 -65 -172 -78 -181 -78 -6 0 -9 -6 -7 -12 8 -24 146 -34 578 -43
810 -18 971 -25 995 -45 41 -34 -71 -477 -203 -800 -87 -213 -233 -466 -389
-675 -287 -382 -624 -667 -1136 -958 -193 -111 -309 -188 -341 -229 -21 -28
-25 -29 -146 -36 -278 -17 -1280 3 -1670 33 -278 22 -313 28 -365 63 -51 34
-53 35 -285 153 -346 175 -574 337 -831 590 -151 149 -229 237 -338 384 -44
61 -84 115 -89 120 -4 6 -32 51 -63 100 -201 321 -323 607 -424 998 -38 147
-40 211 -5 239 50 40 113 46 635 53 187 3 367 7 400 10 105 9 198 25 212 37
21 17 10 94 -52 388 -18 86 -53 230 -81 345 -20 77 -37 147 -39 155 -8 38
-145 532 -183 660 -31 101 -79 226 -108 278 -49 87 -83 127 -236 278 -149 146
-197 209 -214 279 -4 17 -9 98 -10 180 -6 246 21 329 146 455 85 85 158 132
263 168 92 33 258 36 352 8 128 -38 256 -124 344 -231 74 -90 112 -201 116
-340 4 -153 -35 -278 -135 -430 -150 -229 -146 -202 -60 -373 80 -159 242
-450 413 -742 66 -113 125 -214 131 -225 6 -11 18 -31 27 -45 9 -14 76 -124
149 -245 127 -209 299 -475 337 -521 58 -70 166 -86 593 -87 123 0 678 13 770
18 30 2 109 6 175 10 66 3 134 8 150 10 17 2 54 6 84 10 241 26 513 167 722
376 207 207 307 433 314 710 4 155 -15 267 -79 464 -12 39 -84 201 -106 240
-89 158 -177 283 -313 448 -62 75 -103 112 -134 122 -29 8 -41 -19 -48 -113
-14 -186 -91 -303 -495 -745 -19 -22 -59 -71 -88 -110 -29 -40 -56 -76 -60
-82 -19 -25 -60 -115 -78 -170 -36 -116 -19 -463 30 -579 21 -52 47 -61 109
-41 321 105 588 433 663 815 20 104 23 122 29 230 8 134 34 214 63 196 37 -23
58 -277 38 -461 -37 -342 -193 -632 -436 -810 -116 -84 -253 -144 -380 -165
-41 -7 -83 -14 -92 -15 -95 -18 -627 -25 -983 -13 -104 4 -206 7 -226 7 -30 1
-38 6 -56 39 -11 20 -120 213 -243 427 -123 215 -234 410 -248 435 -14 25 -28
50 -32 55 -4 6 -19 30 -32 55 -14 25 -98 172 -187 328 l-161 282 79 158 c78
157 101 213 121 307 107 483 -207 996 -697 1141 -66 19 -119 27 -213 31 -69 3
-127 3 -130 0z"/>
<path d="M3332 4793 c-102 -88 -248 -347 -269 -478 -2 -16 -8 -47 -13 -67 -13
-60 -5 -227 14 -292 55 -187 177 -340 327 -407 119 -54 393 -103 579 -103 204
0 174 38 -157 202 -101 49 -211 110 -246 135 -131 94 -216 223 -243 369 -9 48
-13 288 -6 302 3 5 20 -45 38 -110 18 -65 42 -144 54 -174 63 -161 189 -315
308 -377 73 -39 96 -41 116 -10 21 31 56 200 56 267 0 80 -29 130 -170 300
-128 154 -217 277 -270 375 -37 68 -58 95 -74 95 -7 0 -26 -12 -44 -27z"/>
</g>
</svg>
