<?xml version="1.0" standalone="no"?>
<!DOCTYPE svg PUBLIC "-//W3C//DTD SVG 20010904//EN"
 "http://www.w3.org/TR/2001/REC-SVG-20010904/DTD/svg10.dtd">
<svg version="1.0" xmlns="http://www.w3.org/2000/svg"
 width="127.000000pt" height="127.000000pt" viewBox="0 0 127.000000 127.000000"
 preserveAspectRatio="xMidYMid meet">
<metadata>
Created by potrace 1.11, written by Peter Selinger 2001-2013
</metadata>
<g transform="translate(0.000000,127.000000) scale(0.100000,-0.100000)"
fill="#000000" stroke="none">
<path d="M177 1196 c-131 -48 -159 -215 -51 -304 28 -23 37 -43 63 -137 17
-60 31 -117 31 -125 0 -13 -16 -16 -92 -17 -51 -1 -101 -2 -110 -2 -41 -2 -12
-167 50 -286 46 -87 151 -199 229 -245 49 -29 59 -38 55 -57 l-4 -23 287 0
c284 0 287 0 282 20 -4 17 7 28 58 61 74 47 173 148 215 222 41 70 80 197 80
258 l0 49 -131 0 c-111 0 -135 -3 -157 -19 -15 -10 -40 -22 -56 -28 -21 -6 13
-10 124 -11 85 -1 156 -4 158 -7 8 -8 -18 -104 -42 -157 -56 -123 -143 -214
-268 -283 -38 -20 -68 -41 -68 -47 0 -11 -382 -1 -390 11 -3 4 -25 17 -50 28
-150 70 -271 214 -316 378 -22 79 -27 75 100 75 69 0 117 4 121 10 4 6 -13 84
-36 173 -43 158 -44 163 -89 204 -42 39 -45 46 -45 92 0 39 5 55 24 75 52 56
132 51 180 -10 28 -36 25 -99 -8 -140 -11 -15 -21 -32 -21 -38 0 -18 189 -340
208 -354 13 -11 54 -13 177 -10 143 4 165 7 204 27 142 74 165 212 59 355 -44
60 -58 68 -58 35 0 -30 -17 -58 -71 -116 -60 -64 -70 -88 -62 -153 6 -55 10
-57 52 -35 60 31 101 105 101 183 0 17 5 32 10 32 6 0 10 -26 10 -57 -1 -102
-55 -180 -140 -203 -22 -6 -87 -9 -146 -8 l-106 3 -84 147 -84 147 21 41 c72
139 -68 300 -214 246z"/>
<path d="M598 863 c-66 -76 -61 -173 12 -217 30 -17 143 -30 134 -14 -3 5 -30
20 -59 33 -60 26 -86 62 -84 117 l1 33 8 -32 c10 -41 34 -79 61 -93 25 -14 25
-14 33 27 6 27 2 37 -27 70 -19 21 -41 51 -49 66 -13 27 -15 27 -30 10z"/>
</g>
</svg>
